<?xml version="1.0" encoding="UTF-8"?>
<svg version="1.1" xmlns="http://www.w3.org/2000/svg" width="182" height="182">
<path d="M0 0 C60.06 0 120.12 0 182 0 C182 60.06 182 120.12 182 182 C121.94 182 61.88 182 0 182 C0 121.94 0 61.88 0 0 Z " fill="#FDFDFD" transform="translate(0,0)"/>
<path d="M0 0 C5.71386509 0.12317314 8.75305461 1.23504131 12.7109375 5.34765625 C15.79167952 9.44808049 17.58426104 13.77804099 19.375 18.5625 C19.63635742 19.25456543 19.89771484 19.94663086 20.16699219 20.65966797 C22.28276096 26.27719088 24.33312503 31.91778888 26.375 37.5625 C32.51875748 57.83346674 32.51875748 57.83346674 46.375 72.5625 C48.07863822 72.78872081 49.78828701 72.97138473 51.5 73.125 C52.86511719 73.25068359 52.86511719 73.25068359 54.2578125 73.37890625 C54.95648438 73.43949219 55.65515625 73.50007813 56.375 73.5625 C56.045 74.2225 55.715 74.8825 55.375 75.5625 C47.25014897 76.0038903 41.21461913 75.31649485 34.875 69.75 C28.19238914 62.66101416 21.375 49.35199155 21.375 39.5625 C14.115 39.8925 6.855 40.2225 -0.625 40.5625 C-1.470625 42.769375 -2.31625 44.97625 -3.1875 47.25 C-3.45763916 47.93537842 -3.72777832 48.62075684 -4.00610352 49.3269043 C-5.56582111 53.54627362 -5.55368326 54.91908368 -4.625 59.5625 C-8.915 59.5625 -13.205 59.5625 -17.625 59.5625 C-17.625 58.9025 -17.625 58.2425 -17.625 57.5625 C-16.8825 57.376875 -16.14 57.19125 -15.375 57 C-9.89184422 54.13380493 -7.87831814 47.02521008 -5.75 41.5 C-5.23587367 40.18170621 -4.72020981 38.86401117 -4.203125 37.546875 C-3.94337891 36.88494141 -3.68363281 36.22300781 -3.41601562 35.54101562 C-2.1676469 32.41855262 -0.83444016 29.33673533 0.5 26.25 C2.27319543 22.13432009 4.0442799 18.01917911 5.75 13.875 C6.06710938 13.10800781 6.38421875 12.34101562 6.7109375 11.55078125 C7.53339337 9.4376257 7.53339337 9.4376257 7.375 6.5625 C3.03335783 2.79974346 -2.14109533 2.8713024 -7.625 2.5625 C-5.01053623 -0.05196377 -3.64937153 0.14320319 0 0 Z " fill="#191919" transform="translate(56.625,54.4375)"/>
<path d="M0 0 C3.05092765 0 5.23301079 0.36464959 7.62304688 2.34448242 C12.79728247 8.03446559 15.96835136 14.43774487 19.08227539 21.40161133 C19.94664859 23.33294133 20.83189328 25.25363818 21.72070312 27.17382812 C26 36.5377834 26 36.5377834 26 40 C26.66 40 27.32 40 28 40 C28.38027344 38.783125 28.76054688 37.56625 29.15234375 36.3125 C31.2433598 30.04559108 33.89911723 24.04073413 36.5625 18 C37.3040332 16.28490234 37.3040332 16.28490234 38.06054688 14.53515625 C38.53685547 13.45105469 39.01316406 12.36695312 39.50390625 11.25 C39.93517822 10.26515625 40.3664502 9.2803125 40.81079102 8.265625 C42 6 42 6 44 5 C44.44126959 7.41602924 44.87851576 9.83265729 45.3125 12.25 C45.51661499 13.38018555 45.51661499 13.38018555 45.72485352 14.53320312 C46.47591625 18.76859092 47.15463058 23.00213249 47.7265625 27.265625 C47.84604248 28.13799805 47.96552246 29.01037109 48.08862305 29.90917969 C48.31504454 31.59062468 48.53070001 33.27356777 48.73364258 34.95800781 C49.64620281 41.65788653 51.77694873 50.33656137 57 55 C59.66186367 55.91551176 62.22363157 56.45382916 65 57 C65 57.33 65 57.66 65 58 C60.39395555 58.76452787 56.59925294 59.12935558 52.66015625 56.34765625 C44.7760844 47.99377006 43.59859301 37.92274977 42.3125 26.875 C42.18294922 25.823125 42.05339844 24.77125 41.91992188 23.6875 C41.60553557 21.12583381 41.29904233 18.56349467 41 16 C39.57639674 19.1010308 38.16124854 22.20582754 36.75 25.3125 C36.33540527 26.22427002 35.92081055 27.13604004 35.49365234 28.07543945 C32.96272316 33.69678217 30.66812524 39.29997713 28.8515625 45.19921875 C28.57054688 45.79347656 28.28953125 46.38773438 28 47 C26.515 47.495 26.515 47.495 25 48 C24.731875 47.25878906 24.46375 46.51757812 24.1875 45.75390625 C21.35859799 38.15123209 18.14247565 30.85318642 14.59179688 23.56274414 C12 18.19944087 12 18.19944087 12 16 C11.34 16 10.68 16 10 16 C10 19.3 10 22.6 10 26 C8 24 8 24 7.9453125 20.953125 C8.00460938 19.73109375 8.06390625 18.5090625 8.125 17.25 C8.34585918 11.46613055 8.34585918 11.46613055 6.25 6.25 C4.20517699 4.20517699 2.7083047 2.96725168 0 2 C0 1.34 0 0.68 0 0 Z " fill="#2A2A2A" transform="translate(75,61)"/>
<path d="M0 0 C3 1 3 1 3.9831543 2.88598633 C4.3994812 4.09677856 4.3994812 4.09677856 4.82421875 5.33203125 C5.13037109 6.21310547 5.43652344 7.09417969 5.75195312 8.00195312 C6.06068359 8.92943359 6.36941406 9.85691406 6.6875 10.8125 C7.00783203 11.72837891 7.32816406 12.64425781 7.65820312 13.58789062 C9.04952271 17.66098613 10 20.6423868 10 25 C3.73 25 -2.54 25 -9 25 C-6.61584032 16.39053449 -3.39757674 8.24654549 0 0 Z " fill="#EBEBEB" transform="translate(66,67)"/>
<path d="M0 0 C3.05092765 0 5.23301079 0.36464959 7.62304688 2.34448242 C12.79728247 8.03446559 15.96835136 14.43774487 19.08227539 21.40161133 C19.94664859 23.33294133 20.83189328 25.25363818 21.72070312 27.17382812 C26 36.5377834 26 36.5377834 26 40 C27.485 39.505 27.485 39.505 29 39 C28.67 41.64 28.34 44.28 28 47 C26.515 47.495 26.515 47.495 25 48 C24.731875 47.25878906 24.46375 46.51757812 24.1875 45.75390625 C21.35859799 38.15123209 18.14247565 30.85318642 14.59179688 23.56274414 C12 18.19944087 12 18.19944087 12 16 C11.34 16 10.68 16 10 16 C10 19.3 10 22.6 10 26 C8 24 8 24 7.9453125 20.953125 C8.00460938 19.73109375 8.06390625 18.5090625 8.125 17.25 C8.34585918 11.46613055 8.34585918 11.46613055 6.25 6.25 C4.20517699 4.20517699 2.7083047 2.96725168 0 2 C0 1.34 0 0.68 0 0 Z " fill="#1E1E1E" transform="translate(75,61)"/>
<path d="M0 0 C1.65 0 3.3 0 5 0 C4.01 0.495 4.01 0.495 3 1 C2.29872505 3.10444484 2.29872505 3.10444484 1.75 5.6875 C-0.06091195 12.81855224 -2.98152886 19.30856722 -6 26 C-6.66 25.67 -7.32 25.34 -8 25 C-7.87625 26.3921875 -7.87625 26.3921875 -7.75 27.8125 C-7.7032774 32.40065888 -9.4494051 36.18412377 -11.22265625 40.3515625 C-12.32955808 43.36434454 -12.32955808 43.36434454 -11 48 C-15.29 48 -19.58 48 -24 48 C-24 47.34 -24 46.68 -24 46 C-23.2575 45.814375 -22.515 45.62875 -21.75 45.4375 C-16.26684422 42.57130493 -14.25331814 35.46271008 -12.125 29.9375 C-11.61221069 28.62179709 -11.09784715 27.3067068 -10.58203125 25.9921875 C-10.32244629 25.33057617 -10.06286133 24.66896484 -9.79541016 23.98730469 C-8.52736337 20.81913376 -7.16936047 17.69371648 -5.8125 14.5625 C-3.73145321 9.75042068 -1.77566641 4.9324067 0 0 Z " fill="#1B1B1B" transform="translate(63,66)"/>
<path d="M0 0 C0.99 0.33 1.98 0.66 3 1 C2.67 1.66 2.34 2.32 2 3 C2.7425 3.20625 3.485 3.4125 4.25 3.625 C6.97393135 4.98696567 8.65862602 6.20485203 10.28515625 8.8046875 C11.95827541 13.94290043 11.26298544 19.66723959 11 25 C11.33 22.36 11.66 19.72 12 17 C12.66 17 13.32 17 14 17 C14.66 18.98 15.32 20.96 16 23 C15.01 22.67 14.02 22.34 13 22 C13 23.98 13 25.96 13 28 C11.02 27.67 9.04 27.34 7 27 C6.79842285 26.45061768 6.5968457 25.90123535 6.38916016 25.33520508 C5.46851647 22.82736323 4.54676812 20.31992876 3.625 17.8125 C3.30789062 16.94818359 2.99078125 16.08386719 2.6640625 15.19335938 C1.16095963 11.10679846 -0.34815448 7.02950195 -2 3 C-1.34 3 -0.68 3 0 3 C0 2.01 0 1.02 0 0 Z " fill="#EAEAEA" transform="translate(73,60)"/>
<path d="M0 0 C-0.01160156 0.61488281 -0.02320313 1.22976562 -0.03515625 1.86328125 C-0.04417969 2.67152344 -0.05320312 3.47976562 -0.0625 4.3125 C-0.07410156 5.11300781 -0.08570313 5.91351563 -0.09765625 6.73828125 C-0.09657855 9.16861334 -0.09657855 9.16861334 1 12 C-3.29 12 -7.58 12 -12 12 C-12 11.34 -12 10.68 -12 10 C-11.2575 9.814375 -10.515 9.62875 -9.75 9.4375 C-5.84445872 7.39596706 -5.03962222 4.86824904 -3 1 C-1 0 -1 0 0 0 Z " fill="#282828" transform="translate(51,102)"/>
<path d="M0 0 C0.66 0.99 1.32 1.98 2 3 C1.43261719 5.09716797 1.43261719 5.09716797 0.296875 7.4921875 C-0.10660156 8.36230469 -0.51007813 9.23242188 -0.92578125 10.12890625 C-1.36277344 11.03511719 -1.79976562 11.94132812 -2.25 12.875 C-3.0892001 14.66375374 -3.92776158 16.45280726 -4.765625 18.2421875 C-5.14493164 19.0347998 -5.52423828 19.82741211 -5.91503906 20.64404297 C-7.03047326 23.06617169 -8.02994292 25.51649973 -9 28 C-9.66 27.01 -10.32 26.02 -11 25 C-10.21728516 22.36450195 -10.21728516 22.36450195 -8.7890625 19.23828125 C-8.03496094 17.56088867 -8.03496094 17.56088867 -7.265625 15.84960938 C-6.72421875 14.68236328 -6.1828125 13.51511719 -5.625 12.3125 C-5.09132813 11.13365234 -4.55765625 9.95480469 -4.0078125 8.74023438 C-2.68410291 5.82098198 -1.34778535 2.90819601 0 0 Z " fill="#2F2F2F" transform="translate(114,74)"/>
<path d="M0 0 C3.51769206 5.27653809 3.10579441 10.86392402 3 17 C2.34 16.01 1.68 15.02 1 14 C0.01 15.485 0.01 15.485 -1 17 C-1 14.69 -1 12.38 -1 10 C-1.66 10 -2.32 10 -3 10 C-2.49287967 6.28111761 -1.88391785 3.26545761 0 0 Z " fill="#2C2C2C" transform="translate(118,66)"/>
<path d="M0 0 C3.34388731 0 5.39870381 0.46592188 7.921875 2.70703125 C13.24465031 8.63466739 13.24465031 8.63466739 14 13 C12.35 13 10.7 13 9 13 C8.76925781 12.45730469 8.53851563 11.91460937 8.30078125 11.35546875 C6.18602515 6.71637928 4.703065 4.3515325 0 2 C0 1.34 0 0.68 0 0 Z " fill="#1D1D1D" transform="translate(75,61)"/>
<path d="M0 0 C1.65 0.33 3.3 0.66 5 1 C4.67 3.31 4.34 5.62 4 8 C3.34 6.68 2.68 5.36 2 4 C1.34 4 0.68 4 0 4 C0 7.3 0 10.6 0 14 C-2 12 -2 12 -2.25 8.6875 C-2.01863452 5.27485916 -1.4765288 3.04534065 0 0 Z " fill="#171717" transform="translate(85,73)"/>
<path d="M0 0 C0.19622241 4.21878192 -0.19769832 7.17010894 -2 11 C-3.5625 9.875 -3.5625 9.875 -5 8 C-4.875 4.9375 -4.875 4.9375 -4 2 C-1 0 -1 0 0 0 Z " fill="#1B1B1B" transform="translate(54,95)"/>
<path d="M0 0 C1.18851563 0.10183594 2.37703125 0.20367187 3.6015625 0.30859375 C4.51679687 0.39238281 5.43203125 0.47617188 6.375 0.5625 C6.045 1.2225 5.715 1.8825 5.375 2.5625 C3.79205218 2.61687607 2.20855744 2.65546271 0.625 2.6875 C-0.25671875 2.71070313 -1.1384375 2.73390625 -2.046875 2.7578125 C-4.7385858 2.55389502 -6.32404974 1.92801721 -8.625 0.5625 C-5.68113377 -0.90943312 -3.25109964 -0.28686173 0 0 Z " fill="#404040" transform="translate(106.625,127.4375)"/>
<path d="M0 0 C4.03174806 0.27489191 5.56894631 0.53491576 8.375 3.5625 C8.91125 4.366875 9.4475 5.17125 10 6 C8.25 6.75 8.25 6.75 6 7 C3.875 5.125 3.875 5.125 2 3 C1.34 2.67 0.68 2.34 0 2 C0 1.34 0 0.68 0 0 Z " fill="#2F2F2F" transform="translate(75,61)"/>
<path d="M0 0 C0.66 0.33 1.32 0.66 2 1 C1.55123384 2.64846769 1.09069512 4.29373455 0.625 5.9375 C0.36976562 6.85402344 0.11453125 7.77054687 -0.1484375 8.71484375 C-1 11 -1 11 -3 12 C-4.21386936 8.35839192 -3.6674695 7.66834531 -2.0625 4.3125 C-1.49208984 3.10013672 -1.49208984 3.10013672 -0.91015625 1.86328125 C-0.60980469 1.24839844 -0.30945313 0.63351563 0 0 Z " fill="#3C3C3C" transform="translate(107,90)"/>
<path d="M0 0 C0.66 0.66 1.32 1.32 2 2 C5.12196336 2.46486718 5.12196336 2.46486718 8.625 2.625 C9.81351563 2.69976562 11.00203125 2.77453125 12.2265625 2.8515625 C13.14179687 2.90054688 14.05703125 2.94953125 15 3 C15 3.33 15 3.66 15 4 C10.05 4.33 5.1 4.66 0 5 C-0.33 3.68 -0.66 2.36 -1 1 C-0.67 0.67 -0.34 0.34 0 0 Z " fill="#111111" transform="translate(55,90)"/>
<path d="M0 0 C0.66 0 1.32 0 2 0 C2.66 1.98 3.32 3.96 4 6 C3.01 5.67 2.02 5.34 1 5 C1 6.98 1 8.96 1 11 C0.34 10.67 -0.32 10.34 -1 10 C-0.67 6.7 -0.34 3.4 0 0 Z " fill="#B6B6B6" transform="translate(85,77)"/>
<path d="M0 0 C1.98 0 3.96 0 6 0 C6.33 0.66 6.66 1.32 7 2 C6.01 3.485 6.01 3.485 5 5 C2.5 3.625 2.5 3.625 0 2 C0 1.34 0 0.68 0 0 Z " fill="#232323" transform="translate(59,56)"/>
<path d="M0 0 C1.65 0 3.3 0 5 0 C4.01 0.495 4.01 0.495 3 1 C2.34444881 3.52733235 2.34444881 3.52733235 2 6 C1.01 6 0.02 6 -1 6 C-1 3 -1 3 0 0 Z " fill="#2C2C2C" transform="translate(63,66)"/>
<path d="M0 0 C0.99 0.495 0.99 0.495 2 1 C2.40729228 3.32156597 2.74438677 5.6568787 3 8 C2.01 7.67 1.02 7.34 0 7 C0 4.69 0 2.38 0 0 Z " fill="#040404" transform="translate(118,79)"/>
<path d="M0 0 C1.98 0.495 1.98 0.495 4 1 C3.34 2.98 2.68 4.96 2 7 C1.01 6.34 0.02 5.68 -1 5 C-0.67 3.35 -0.34 1.7 0 0 Z " fill="#272727" transform="translate(56,83)"/>
</svg>
